<svg id="Layer_1" data-name="Layer 1" xmlns="http://www.w3.org/2000/svg" viewBox="0 0 99.5 346"><defs><style>.cls-1{fill:#fff;}</style></defs><title>ybi-icon</title><path class="cls-1" d="M23.16,112.73H78.67V346H23.16V112.73Z" transform="translate(-2.33)"/><path class="cls-1" d="M51.15,93c-14.83,0-26.78-4.31-35.5-12.83S2.33,60.19,2.33,47s4.39-24.51,13.06-33.4S36.17,0,51.15,0c14.6,0,26.72,4.26,36,12.67,9.59,8.69,14.66,20.54,14.66,34.28,0,13.91-5.17,25.69-15,34.07C77.62,88.95,65.61,93,51.15,93Zm0-63.45c-10.1,0-13.5,3.49-14.62,4.64C33.34,37.44,31.85,41.5,31.85,47c0,7,2.51,10.21,4.39,12,3,3,8,4.46,14.9,4.46,7.32,0,12.72-1.59,16.52-4.84,2.16-1.85,4.64-4.85,4.64-11.65,0-5.47-1.52-9.29-4.94-12.38C63.61,31.18,58.3,29.52,51.15,29.52Z" transform="translate(-2.33)"/></svg>