<?xml version="1.0" encoding="utf-8"?>
<!-- Generator: Adobe Illustrator 19.2.0, SVG Export Plug-In . SVG Version: 6.00 Build 0)  -->
<svg version="1.1" id="Layer_1" xmlns="http://www.w3.org/2000/svg" xmlns:xlink="http://www.w3.org/1999/xlink" x="0px" y="0px"
	 viewBox="0 0 358.9 78.2" style="enable-background:new 0 0 358.9 78.2;" xml:space="preserve">
<style type="text/css">
	.st0{fill:#FFFFFF;}
	.st1{fill:#EC5F54;}
	.st2{fill-rule:evenodd;clip-rule:evenodd;fill:#EC5F54;}
</style>
<g>
	<path class="st0" d="M15.7,41.3L18,53.6c0.2,1.4,0.4,2.7,0.6,4h0.1c0.2-1.2,0.4-2.6,0.6-3.9l2-12.4h6.2l-4.8,18.3
		c-1.2,4.5-2.7,9.1-5.3,12.1c-2,2.3-4.4,3.4-5.4,3.7l-1.9-5.5c1.1-0.4,2.2-1.1,3.1-2c0.9-0.8,1.6-1.8,2-2.8c0.2-0.4,0.3-0.7,0.3-1
		c0-0.3-0.1-0.6-0.2-0.9L8.9,41.3H15.7z"/>
	<path class="st0" d="M46.4,53.1c0,9.9-5.5,12.3-9.1,12.3c-5.7,0-9.1-4.5-9.1-12.2c0-8.5,4.5-12.3,9.2-12.3
		C43,40.9,46.4,45.6,46.4,53.1z M34.6,53.1c0,4.1,0.6,7.5,2.9,7.5c2,0,2.6-4,2.6-7.5c0-3.2-0.5-7.4-2.7-7.4
		C35.1,45.7,34.6,49.8,34.6,53.1z"/>
	<path class="st0" d="M67.4,57.8c0,2.5,0.1,5,0.2,7.2h-5.5l-0.3-2.5h-0.1c-1.1,1.6-3.1,2.9-5.5,2.9c-4.5,0-6.3-3.3-6.3-9.7V41.3h6.4
		V55c0,3.1,0.6,5.1,2.4,5.1c1.1,0,1.7-0.8,2-1.6c0.2-0.5,0.4-1.2,0.4-2V41.3h6.3V57.8z"/>
	<path class="st0" d="M71.9,48.4c0-2.4-0.1-4.9-0.2-7.1h5.5l0.3,3.4h0.1c1.1-2.5,3-3.8,4.7-3.8c0.6,0,1,0,1.4,0.1v6.3
		c-0.4-0.1-0.8-0.1-1.4-0.1c-1.4,0-3.1,0.9-3.9,3.4c-0.1,0.5-0.2,1.4-0.2,2.4v12h-6.4V48.4z"/>
	<path class="st1" d="M86.3,65c0-1.4,0.2-4,0.2-5.6V31.5h3.7v12.8h0.1c1.2-2.3,3-3.1,4.9-3.1c3.6,0,6.4,4.2,6.4,11.9
		c0,8.5-3.5,12.4-7.1,12.4c-2.5,0-3.7-1.5-4.7-3.4h-0.1L89.5,65H86.3z M90.2,56.7c0,0.5,0,1.1,0.1,1.5c0.9,3.5,2.5,4.1,3.5,4.1
		c3,0,4.1-4.1,4.1-9.1c0-4.7-1.1-8.9-4.1-8.9c-1.7,0-3.2,2.2-3.5,4.2c-0.1,0.5-0.1,1.1-0.1,1.6V56.7z"/>
	<path class="st1" d="M105.8,47.6c0-2-0.1-4.3-0.2-6.1h3.3l0.2,3.7h0.1c0.8-2.2,2.8-4.1,4.9-4.1c0.3,0,0.5,0,0.8,0V45
		c-0.2,0-0.5,0-0.8,0c-2.4,0-4.1,2.2-4.5,4.9c-0.1,0.6-0.1,1.4-0.1,2.1v13h-3.7V47.6z"/>
	<path class="st1" d="M131.6,53.3c0,9.1-4.2,12.1-7.8,12.1c-4.2,0-7.6-3.8-7.6-12.1c0-8.6,3.8-12.2,7.8-12.2
		C128.2,41.2,131.6,45.1,131.6,53.3z M119.9,53.3c0,3.9,0.7,9.2,4.1,9.2c3.2,0,3.8-5.5,3.8-9.2c0-3.6-0.6-9.1-3.9-9.1
		C120.6,44.2,119.9,49.7,119.9,53.3z"/>
	<path class="st1" d="M137.3,41.6l2.3,11.5c0.4,2.5,1,5,1.3,7.5h0.2c0.3-2.4,0.9-5.1,1.5-7.4l2.7-11.6h2.9l2.6,11.2
		c0.6,2.6,1.1,5.1,1.5,7.7h0.2c0.3-2.5,0.7-4.9,1.3-7.6l2.2-11.4h3.7L153.7,65h-3.1l-2.7-11.4c-0.6-2.3-0.9-4.4-1.3-7h-0.1
		c-0.4,2.8-0.8,4.9-1.4,7.2L142.3,65h-3.1l-5.7-23.4H137.3z"/>
	<path class="st1" d="M162.2,61.1c0.8,0.5,2.3,1.2,3.8,1.2c2.1,0,3.4-1.3,3.4-3.4c0-1.8-0.6-3-3-4.6c-3.1-2-4.7-4-4.7-6.7
		c0-3.8,2.8-6.5,6.4-6.5c1.8,0,3.2,0.6,4.2,1.2l-1,2.8c-0.9-0.6-1.9-1-3.1-1c-2,0-3.1,1.5-3.1,3c0,1.6,0.6,2.5,2.9,4.1
		c2.7,1.7,4.8,3.9,4.8,7.1c0,4.7-3.2,7-7,7c-1.7,0-3.6-0.5-4.7-1.4L162.2,61.1z"/>
	<path class="st1" d="M180.9,35.5c0,1.5-0.9,2.4-2.3,2.4c-1.2,0-2.1-1-2.1-2.4c0-1.5,1-2.4,2.2-2.4C180,33.1,180.9,34,180.9,35.5z
		 M176.9,65V41.6h3.7V65H176.9z"/>
	<path class="st1" d="M185.8,47.6c0-2.8-0.1-4.2-0.2-6.1h3.2l0.2,2.8h0.1c1-1.9,2.9-3.2,5.4-3.2c3.2,0,5.7,2.4,5.7,8.1V65h-3.7V49.9
		c0-2.8-0.5-5.6-3.2-5.6c-1.5,0-3.1,1.3-3.5,3.8c-0.1,0.6-0.1,1.3-0.1,2.1V65h-3.7V47.6z"/>
	<path class="st1" d="M219.7,41.6c0,1.6-0.2,3.7-0.2,7.3V62c0,6.2-0.8,8.5-2.3,10.2c-1.4,1.6-3.6,2.5-6.2,2.5c-2,0-3.9-0.5-5.1-1.2
		l0.9-2.9c0.9,0.5,2.5,1,4.4,1c3,0,4.8-1.8,4.8-7.2v-2.4h-0.1c-0.8,1.8-2.5,2.9-4.5,2.9c-4.2,0-6.9-4.7-6.9-11.6
		c0-8.6,3.9-12.2,7.4-12.2c2.5,0,3.7,1.6,4.4,3.1h0.1l0.2-2.7H219.7z M215.9,49.6c0-0.6,0-1.2-0.2-1.7c-0.4-1.6-1.3-3.6-3.4-3.6
		c-2.7,0-4.2,3.6-4.2,8.8c0,6,1.9,8.7,4.2,8.7c1.1,0,2.6-0.5,3.3-3.3c0.2-0.7,0.2-1.5,0.2-2.1V49.6z"/>
	<path class="st0" d="M230.7,35c0,2-1.4,3.4-3.3,3.4c-1.7,0-3.2-1.4-3.1-3.4c0-2.1,1.5-3.4,3.2-3.4C229.3,31.6,230.7,32.9,230.7,35z
		 M224.3,65V41.3h6.3V65H224.3z"/>
	<path class="st0" d="M235.2,48.4c0-2.6-0.1-4.9-0.2-7.1h5.5l0.3,2.7h0.1c1.3-1.9,3.3-3.1,5.8-3.1c4.5,0,6.3,3.6,6.3,8.9V65h-6.3
		V50.2c0-2-0.5-3.9-2.3-3.9c-1.1,0-1.9,0.7-2.4,2.1c-0.2,0.5-0.3,1.3-0.3,2.2V65h-6.3V48.4z"/>
	<path class="st0" d="M257.1,59.3c0.9,0.6,2.7,1.3,4.3,1.3c1.6,0,2.6-0.7,2.6-2.1c0-1.2-0.7-2-2.8-3.2c-3.9-2.2-4.8-4.7-4.8-6.8
		c0-4.3,3.1-7.5,7.8-7.5c2,0,3.5,0.5,4.8,1.1l-1.1,4.7c-0.9-0.5-2-1-3.3-1c-1.6,0-2.4,1-2.4,2c0,1.1,0.5,1.6,2.8,3
		c3.5,2,4.8,4.5,4.8,7.2c0,4.8-3.5,7.5-8.4,7.5c-2,0-4.3-0.5-5.4-1.4L257.1,59.3z"/>
	<path class="st0" d="M273,65V41.3h6.3V65H273z"/>
	<path class="st0" d="M301.3,41.3c-0.1,2.1-0.2,4.7-0.2,7.5v13.5c0,5.1-0.9,7.9-2.9,9.7c-1.7,1.6-4.2,2.6-7.7,2.6
		c-2.2,0-4.2-0.4-5.9-1.1l1.2-4.9c1.2,0.5,2.7,1,4.6,1c3.2,0,4.5-2.1,4.5-5.8v-1.5h-0.1c-0.8,1.5-2.5,2.4-4.3,2.4
		c-5.3,0-7.4-5.8-7.4-11.5c0-7.9,3.6-12.5,8-12.5c1.9,0,3.4,1,4.4,2.8h0.1l0.3-2.4H301.3z M294.8,49.9c0-0.6-0.1-1.3-0.2-1.7
		c-0.3-1-1-1.9-2-1.9c-2.3,0-3.2,3.1-3.2,7c0,4.4,1.3,6.6,3.1,6.6c0.8,0,1.6-0.4,2.1-1.7c0.2-0.5,0.3-1.3,0.3-1.9V49.9z"/>
	<path class="st0" d="M305.5,31.5h6.3v12.3h0.1c0.5-0.8,1.3-1.5,2-2c0.9-0.5,2-0.8,3.2-0.8c4.4,0,6.1,3.7,6.1,9.7V65h-6.3V50.6
		c0-2.3-0.4-4.4-2.3-4.4c-1.1,0-2,0.6-2.5,2.2c-0.1,0.4-0.2,1.3-0.2,1.8V65h-6.3V31.5z"/>
	<path class="st0" d="M335.2,34.9v6.4h4.7v4.5h-4.7v10.8c0,2.8,1.2,3.4,2.4,3.4c0.6,0,1.1,0,1.6-0.1l0,4.9c-0.9,0.2-2.2,0.4-3.9,0.4
		c-1.8,0-3.4-0.4-4.6-1.5c-1.3-1.3-2-3.1-2-6.8V45.8H326v-4.5h2.8v-4.9L335.2,34.9z"/>
	<path class="st0" d="M342.6,59.3c0.9,0.6,2.7,1.3,4.3,1.3c1.6,0,2.6-0.7,2.6-2.1c0-1.2-0.7-2-2.8-3.2c-3.9-2.2-4.8-4.7-4.8-6.8
		c0-4.3,3.1-7.5,7.8-7.5c2,0,3.5,0.5,4.8,1.1l-1.1,4.7c-0.9-0.5-2-1-3.3-1c-1.6,0-2.4,1-2.4,2c0,1.1,0.5,1.6,2.8,3
		c3.5,2,4.8,4.5,4.8,7.2c0,4.8-3.5,7.5-8.4,7.5c-2,0-4.3-0.5-5.4-1.4L342.6,59.3z"/>
</g>
<g>
	<path class="st1" d="M275.9,10.2c7,0,13.4,4.3,16.8,11.2c-3.4,6.8-9.8,11.2-16.8,11.2c-7,0-13.4-4.3-16.8-11.2
		C262.5,14.6,268.9,10.2,275.9,10.2 M275.9,5.5c-9.8,0-18.3,6.5-22,15.9c3.7,9.4,12.2,15.9,22,15.9c9.8,0,18.3-6.5,22-15.9
		C294.2,12,285.7,5.5,275.9,5.5L275.9,5.5z"/>
	<path class="st2" d="M275.9,37.3c4.2,0,8.1-1.2,11.6-3.3c-0.2-0.8-0.5-1.4-0.9-1.7c-2.2-1.5-5.5-0.7-7.6-3.5c0,0-0.8-0.9,1-3
		c1.7-2.1,1.9-5.5,1.4-8.1c-0.4-2.6-2.9-4.3-5.4-4.3s-5,1.7-5.4,4.3c-0.4,2.6-0.3,6,1.4,8.1c1.7,2.1,1,3,1,3
		c-2.1,2.7-5.4,1.9-7.6,3.5c-0.4,0.3-0.7,0.9-1,1.7C267.8,36.1,271.7,37.3,275.9,37.3z"/>
</g>
</svg>
