<?xml version="1.0" encoding="utf-8"?>
<!-- Generator: Adobe Illustrator 19.2.0, SVG Export Plug-In . SVG Version: 6.00 Build 0)  -->
<svg version="1.1" id="Layer_1" xmlns="http://www.w3.org/2000/svg" xmlns:xlink="http://www.w3.org/1999/xlink" x="0px" y="0px"
	 viewBox="0 0 100 100" style="enable-background:new 0 0 100 100;" xml:space="preserve">
<style type="text/css">
	.st0{fill:#FFFFFF;}
	.st1{fill-rule:evenodd;clip-rule:evenodd;fill:#FFFFFF;}
</style>
<g>
	<path class="st0" d="M50,25.1c15.6,0,30,9.7,37.5,24.9C80,65.3,65.6,74.9,50,74.9S20,65.3,12.5,50C20,34.7,34.4,25.1,50,25.1
		 M50,14.5C28,14.5,9.2,29.1,0.9,50C9.2,70.9,28,85.5,50,85.5S90.8,70.9,99.1,50C90.8,29.1,72,14.5,50,14.5L50,14.5z"/>
	<path class="st1" d="M50,85.5c9.4,0,18.2-2.7,25.8-7.3c-0.5-1.7-1.2-3.1-2.1-3.7c-4.8-3.4-12.3-1.6-16.9-7.7c0,0-1.7-1.9,2.2-6.7
		c3.9-4.7,4.2-12.3,3.2-18.1c-1-5.8-6.5-9.7-12.2-9.7c-5.7,0-11.2,3.9-12.2,9.7c-1,5.8-0.6,13.3,3.2,18.1c3.9,4.7,2.2,6.7,2.2,6.7
		c-4.6,6.1-12,4.3-16.9,7.7c-0.9,0.6-1.6,2-2.1,3.7C31.9,82.9,40.7,85.5,50,85.5z"/>
</g>
</svg>
