<?xml version="1.0" encoding="utf-8"?>
<!-- Generator: Adobe Illustrator 19.2.0, SVG Export Plug-In . SVG Version: 6.00 Build 0)  -->
<svg version="1.1" id="_x2014_ÎÓÈ_x5F_1" xmlns="http://www.w3.org/2000/svg" xmlns:xlink="http://www.w3.org/1999/xlink"
	 x="0px" y="0px" viewBox="0 0 558.3 551.4" style="enable-background:new 0 0 558.3 551.4;" xml:space="preserve">
<style type="text/css">
	.st0{fill:#1884AC;}
</style>
<g>
	<path class="st0" d="M135.4,196.6c42.5,0,77-34.4,77-77c0-42.5-34.4-77-77-77c-42.5,0-77,34.4-77,77
		C58.4,162.1,92.9,196.6,135.4,196.6z"/>
	<path class="st0" d="M172.2,203.9c-1.3-0.2-2.7-0.2-4-0.1l-0.8-0.3h-32.1h-32l-0.8,0.3c-1.3-0.1-2.7-0.1-4,0.1
		c-77,10.3-96.4,138-98.4,152.5c-1.5,10.9,6.2,21,17.1,22.4c0.9,0.1,1.8,0.2,2.7,0.2c9.8,0,18.4-7.3,19.8-17.3
		c2.7-19.6,12.8-64.5,31.5-93.1v137.4v119.7c0,14.2,11.5,25.6,25.7,25.6c14.2,0,25.7-11.5,25.7-25.6V406.1h12.8h12.8v119.7
		c0,14.2,11.5,25.6,25.7,25.6c14.2,0,25.6-11.5,25.6-25.6V406.1h0V268.6c18.7,28.6,28.8,73.4,31.5,93.1c1.4,10,9.9,17.3,19.8,17.3
		c0.9,0,1.8-0.1,2.7-0.2c10.9-1.5,18.6-11.5,17.1-22.4C268.6,341.8,249.2,214.1,172.2,203.9z"/>
	<path class="st0" d="M558.1,356.4c-2-14.5-21.4-142.2-98.4-152.5c-1.4-0.2-2.7-0.2-4-0.1l-0.8-0.3h-32.1h-32.1l-0.8,0.3
		c-1.3-0.1-2.6-0.1-4,0.1c-77,10.3-96.4,138-98.4,152.5c-1.5,10.9,6.2,21,17.1,22.4c0.9,0.1,1.8,0.2,2.7,0.2
		c9.8,0,18.4-7.3,19.7-17.3c2.6-18.7,11.9-60.2,28.9-88.8l-20.3,159.5h23v93.4c0,14.2,11.5,25.6,25.7,25.6
		c14.2,0,25.6-11.5,25.6-25.6v-93.4h12.8h12.8v93.4c0,14.2,11.5,25.6,25.6,25.6c14.2,0,25.7-11.5,25.7-25.6v-93.4h23l-20.3-159.5
		c17,28.6,26.3,70.1,28.9,88.8c1.3,10,9.9,17.3,19.7,17.3c0.9,0,1.8-0.1,2.7-0.2C551.9,377.3,559.6,367.3,558.1,356.4z"/>
	<path class="st0" d="M354.3,194.9c0,0,7.1-8.1,20.4-15.4c13.2,10.6,29.9,17,48.2,17c18.2,0,35-6.4,48.2-17
		c13.3,7.2,20.4,15.4,20.4,15.4c35.1-94-3.1-130.1-32.7-143.7l29.7,2.6L487.4,0l-54.9,26.9c-2.2-2.9-5.7-4.7-9.6-4.7
		c-3.9,0-7.4,1.9-9.6,4.7L358.4,0l-1.2,53.8l29.7-2.6C357.4,64.9,319.1,101,354.3,194.9z"/>
</g>
</svg>
