<?xml version="1.0" encoding="utf-8"?>
<!-- Generator: Adobe Illustrator 19.1.0, SVG Export Plug-In . SVG Version: 6.00 Build 0)  -->
<svg version="1.1" id="Layer_1" xmlns="http://www.w3.org/2000/svg" xmlns:xlink="http://www.w3.org/1999/xlink" x="0px" y="0px"
	 viewBox="-1429 531 20 20" style="enable-background:new -1429 531 20 20;" xml:space="preserve">
<style type="text/css">
	.st0{fill:#FE504F;}
</style>
<path class="st0" d="M-1410.5,532h-17c-0.8,0-1.5,0.7-1.5,1.5v13c0,0.8,0.7,1.5,1.5,1.5h5.2l-0.7,1.4c-0.2,0.3-0.3,0.5-0.4,0.6
	c-0.2,0.1-0.4,0.3-0.4,0.5c0,0.3,0.2,0.5,0.5,0.5h8.6c0.3,0,0.5-0.2,0.5-0.5c0-0.2-0.2-0.4-0.4-0.5c-0.1-0.1-0.2-0.3-0.4-0.6
	l-0.7-1.4h5.2c0.8,0,1.5-0.7,1.5-1.5v-13C-1409,532.7-1409.7,532-1410.5,532z M-1422.2,550c0-0.1,0.1-0.1,0.1-0.2l0.9-1.8h4.4
	l0.9,1.8h0c0,0.1,0.1,0.1,0.1,0.2H-1422.2z M-1410,544v2.5c0,0.3-0.2,0.5-0.5,0.5h-17c-0.3,0-0.5-0.2-0.5-0.5V544v-10.5
	c0-0.3,0.2-0.5,0.5-0.5h17c0.3,0,0.5,0.2,0.5,0.5V544z"/>
<g>
	<path class="st0" d="M-1416.2,543.3c-0.6,0-1-0.5-1-1c0-0.6,0.5-1,1-1c0.6,0,1,0.5,1,1C-1415.2,542.8-1415.6,543.3-1416.2,543.3z
		 M-1416.2,541.9c-0.2,0-0.3,0.2-0.3,0.3s0.2,0.3,0.3,0.3c0.2,0,0.3-0.2,0.3-0.3S-1416,541.9-1416.2,541.9z"/>
	<g>
		<path class="st0" d="M-1423.9,543.3h-1.4c-0.2,0-0.3-0.2-0.3-0.3v-6.3c0-0.2,0.2-0.3,0.3-0.3h1.4c0.2,0,0.3,0.2,0.3,0.3v6.3
			C-1423.6,543.1-1423.7,543.3-1423.9,543.3z M-1425,542.6h0.7V537h-0.7V542.6z"/>
		<path class="st0" d="M-1419.7,540.5c-0.2,0-0.3-0.2-0.3-0.3v-5.6c0-0.2,0.2-0.3,0.3-0.3h1.4c0.2,0,0.3,0.2,0.3,0.3v2.8
			c0,0.2-0.2,0.3-0.3,0.3c-0.2,0-0.3-0.2-0.3-0.3v-2.4h-0.7v5.2C-1419.4,540.3-1419.5,540.5-1419.7,540.5z"/>
		<path class="st0" d="M-1421.1,543.3h-1.4c-0.2,0-0.3-0.2-0.3-0.3v-3.5c0-0.2,0.2-0.3,0.3-0.3h1.4c0.2,0,0.3,0.2,0.3,0.3v3.5
			C-1420.8,543.1-1420.9,543.3-1421.1,543.3z M-1422.2,542.6h0.7v-2.8h-0.7V542.6z"/>
		<path class="st0" d="M-1417.2,545.9c0,0-0.1,0-0.1,0c-0.5-0.2-1.1-0.5-1.5-0.9c-0.1-0.1-0.1-0.2-0.1-0.3c0-0.1,0.1-0.2,0.1-0.3
			c0.3-0.2,0.3-0.6,0.2-0.9c-0.1-0.2-0.4-0.3-0.6-0.3c-0.1,0-0.2,0-0.3,0c-0.1,0-0.2,0-0.3,0c-0.1,0-0.2-0.1-0.2-0.2
			c-0.1-0.3-0.1-0.6-0.1-0.8s0-0.6,0.1-0.8c0-0.1,0.1-0.2,0.2-0.2c0.1,0,0.2-0.1,0.3,0c0.1,0,0.2,0,0.3,0c0.2,0,0.5-0.1,0.6-0.3
			c0.2-0.3,0.1-0.7-0.2-0.9c-0.1-0.1-0.1-0.2-0.1-0.3c0-0.1,0-0.2,0.1-0.3c0.4-0.4,0.9-0.7,1.5-0.9c0.1,0,0.2,0,0.3,0
			s0.1,0.1,0.2,0.2c0.1,0.3,0.3,0.6,0.7,0.6c0.3,0,0.6-0.3,0.7-0.6c0-0.1,0.1-0.2,0.2-0.2s0.2-0.1,0.3,0c0.5,0.2,1.1,0.5,1.5,0.9
			c0.1,0.1,0.1,0.2,0.1,0.3c0,0.1-0.1,0.2-0.1,0.3c-0.3,0.2-0.3,0.6-0.2,0.9c0.1,0.2,0.4,0.3,0.6,0.3c0.1,0,0.2,0,0.3,0
			c0.1,0,0.2,0,0.3,0c0.1,0,0.2,0.1,0.2,0.2c0.1,0.3,0.1,0.6,0.1,0.8s0,0.6-0.1,0.8c0,0.1-0.1,0.2-0.2,0.2c-0.1,0-0.2,0.1-0.3,0
			c-0.1,0-0.2,0-0.3,0c-0.2,0-0.5,0.1-0.6,0.3c-0.2,0.3-0.1,0.7,0.2,0.9c0.1,0.1,0.1,0.2,0.1,0.3c0,0.1,0,0.2-0.1,0.3
			c-0.4,0.4-0.9,0.7-1.5,0.9c-0.1,0-0.2,0-0.3,0c-0.1-0.1-0.1-0.1-0.2-0.2c-0.1-0.3-0.3-0.6-0.7-0.6c-0.3,0-0.6,0.3-0.7,0.6
			c0,0.1-0.1,0.2-0.2,0.2C-1417.1,545.9-1417.2,545.9-1417.2,545.9L-1417.2,545.9z M-1418.1,544.7c0.2,0.1,0.4,0.3,0.6,0.4
			c0.1-0.2,0.2-0.3,0.3-0.4c0.3-0.2,0.6-0.3,0.9-0.3c0.3,0,0.7,0.1,0.9,0.3c0.1,0.1,0.3,0.3,0.3,0.4c0.2-0.1,0.4-0.2,0.6-0.4
			c-0.1-0.2-0.2-0.3-0.2-0.5c-0.1-0.3,0-0.7,0.2-1c0.2-0.4,0.7-0.7,1.2-0.7c0,0,0.1,0,0.1,0c0-0.1,0-0.2,0-0.4s0-0.2,0-0.4
			c0,0-0.1,0-0.1,0c-0.5,0-1-0.3-1.2-0.7c-0.2-0.3-0.2-0.6-0.2-1c0-0.2,0.1-0.4,0.2-0.5c-0.2-0.1-0.4-0.3-0.6-0.4
			c-0.1,0.2-0.2,0.3-0.3,0.4c-0.3,0.2-0.6,0.3-0.9,0.3c-0.3,0-0.7-0.1-0.9-0.3c-0.1-0.1-0.3-0.3-0.3-0.4c-0.2,0.1-0.4,0.2-0.6,0.4
			c0.1,0.2,0.2,0.3,0.2,0.5c0.1,0.3,0,0.7-0.2,1c-0.2,0.4-0.7,0.7-1.2,0.7c0,0-0.1,0-0.1,0c0,0.1,0,0.2,0,0.4s0,0.2,0,0.4
			c0,0,0.1,0,0.1,0c0.5,0,1,0.3,1.2,0.7c0.2,0.3,0.2,0.6,0.2,1C-1417.9,544.4-1418,544.6-1418.1,544.7L-1418.1,544.7z"/>
	</g>
</g>
</svg>
