<?xml version="1.0" encoding="utf-8"?>
<!-- Generator: Adobe Illustrator 19.2.0, SVG Export Plug-In . SVG Version: 6.00 Build 0)  -->
<svg version="1.1" id="Layer_1" xmlns="http://www.w3.org/2000/svg" xmlns:xlink="http://www.w3.org/1999/xlink" x="0px" y="0px"
	 viewBox="0 0 485.3 63.1" style="enable-background:new 0 0 485.3 63.1;" xml:space="preserve">
<style type="text/css">
	.st0{fill:#FFFFFF;}
</style>
<g>
	<path class="st0" d="M110.7,46c-1.5,0.7-4.3,1.2-7.5,1.2c-8.7,0-14.3-5.3-14.3-13.8c0-7.9,5.4-14.4,15.5-14.4
		c2.2,0,4.6,0.4,6.4,1.1l-1.3,6.2c-1-0.4-2.5-0.8-4.7-0.8c-4.4,0-7.3,3.2-7.2,7.6c0,5,3.3,7.6,7.4,7.6c2,0,3.5-0.3,4.8-0.8L110.7,46
		z"/>
	<path class="st0" d="M141.4,32.8c0,9.9-7,14.4-14.3,14.4c-7.9,0-14-5.2-14-13.9c0-8.7,5.7-14.3,14.4-14.3
		C135.9,19,141.4,24.7,141.4,32.8z M121.8,33.1c0,4.6,1.9,8.1,5.5,8.1c3.3,0,5.4-3.3,5.4-8.1c0-4-1.5-8.1-5.4-8.1
		C123.3,25,121.8,29.1,121.8,33.1z"/>
	<path class="st0" d="M173.5,32.8c0,9.9-7,14.4-14.3,14.4c-7.9,0-14-5.2-14-13.9c0-8.7,5.7-14.3,14.4-14.3
		C167.9,19,173.5,24.7,173.5,32.8z M153.9,33.1c0,4.6,1.9,8.1,5.5,8.1c3.3,0,5.4-3.3,5.4-8.1c0-4-1.5-8.1-5.4-8.1
		C155.4,25,153.9,29.1,153.9,33.1z"/>
	<path class="st0" d="M187.1,31h0.1c0.6-1.1,1.3-2.2,1.9-3.3l5.5-8.1h10.1L195,30.5l11.1,16.1h-10.3l-6.5-11.1l-2.2,2.7v8.5h-8.4
		V7.4h8.4V31z"/>
	<path class="st0" d="M217.8,12.1c0,2.3-1.8,4.2-4.5,4.2c-2.7,0-4.4-1.9-4.4-4.2c-0.1-2.4,1.7-4.3,4.4-4.3S217.8,9.6,217.8,12.1z
		 M209.2,46.6v-27h8.4v27H209.2z"/>
	<path class="st0" d="M230.8,35.8c0.3,3.5,3.7,5.1,7.6,5.1c2.9,0,5.2-0.4,7.5-1.1l1.1,5.7c-2.8,1.1-6.1,1.7-9.8,1.7
		c-9.2,0-14.4-5.3-14.4-13.8c0-6.9,4.3-14.4,13.7-14.4c8.7,0,12.1,6.8,12.1,13.5c0,1.4-0.2,2.7-0.3,3.3H230.8z M240.7,30
		c0-2-0.9-5.5-4.8-5.5c-3.5,0-5,3.2-5.2,5.5H240.7z"/>
	<path class="st0" d="M285,46c-1.5,0.7-4.3,1.2-7.5,1.2c-8.7,0-14.3-5.3-14.3-13.8c0-7.9,5.4-14.4,15.5-14.4c2.2,0,4.6,0.4,6.4,1.1
		l-1.3,6.2c-1-0.4-2.5-0.8-4.7-0.8c-4.4,0-7.3,3.2-7.2,7.6c0,5,3.3,7.6,7.4,7.6c2,0,3.5-0.3,4.8-0.8L285,46z"/>
	<path class="st0" d="M289.6,28.5c0-4-0.1-6.6-0.2-8.9h7.2l0.3,5h0.2c1.4-3.9,4.7-5.6,7.3-5.6c0.8,0,1.2,0,1.8,0.1V27
		c-0.6-0.1-1.3-0.2-2.3-0.2c-3.1,0-5.2,1.7-5.8,4.3c-0.1,0.6-0.2,1.2-0.2,1.9v13.7h-8.4V28.5z"/>
	<path class="st0" d="M335.9,37.9c0,3.5,0.1,6.4,0.2,8.7h-7.3l-0.4-3.8h-0.2c-1,1.7-3.6,4.4-8.5,4.4c-5.5,0-9.5-3.4-9.5-11.8V19.6
		h8.5v14.5c0,3.9,1.3,6.3,4.2,6.3c2.3,0,3.6-1.6,4.2-2.9c0.2-0.5,0.3-1.2,0.3-1.8V19.6h8.5V37.9z"/>
	<path class="st0" d="M342.7,28.2c0-3.4-0.1-6.2-0.2-8.6h7.1l0.4,3.6h0.2c1.2-1.7,3.5-4.3,8.2-4.3c3.5,0,6.2,1.8,7.4,4.6h0.1
		c1-1.4,2.2-2.5,3.5-3.3c1.5-0.9,3.2-1.3,5.1-1.3c5.2,0,9.1,3.6,9.1,11.7v15.9h-8.2V31.9c0-3.9-1.3-6.2-4-6.2
		c-1.9,0-3.3,1.3-3.9,2.9c-0.2,0.6-0.3,1.5-0.3,2.2v15.8H359V31.5c0-3.4-1.2-5.7-3.9-5.7c-2.2,0-3.4,1.7-3.9,3
		c-0.3,0.7-0.3,1.4-0.3,2.1v15.8h-8.2V28.2z"/>
	<path class="st0" d="M390,46.6c0.1-1.8,0.2-5,0.2-8.1V7.4h8.4v15.4h0.1c1.6-2.3,4.4-3.8,8.2-3.8c6.5,0,11.2,5.4,11.2,13.7
		c0,9.7-6.2,14.6-12.4,14.6c-3.2,0-6.2-1.2-8.1-4.4h-0.1l-0.3,3.8H390z M398.6,35.1c0,0.6,0.1,1.1,0.2,1.5c0.6,2.3,2.5,4,4.9,4
		c3.6,0,5.8-2.8,5.8-7.6c0-4.2-1.9-7.5-5.8-7.5c-2.3,0-4.4,1.7-4.9,4.1c-0.1,0.5-0.2,1-0.2,1.5V35.1z"/>
	<path class="st0" d="M423.3,7.4h8.4v39.3h-8.4V7.4z"/>
	<path class="st0" d="M444.9,35.8c0.3,3.5,3.7,5.1,7.6,5.1c2.9,0,5.2-0.4,7.5-1.1l1.1,5.7c-2.8,1.1-6.1,1.7-9.8,1.7
		c-9.2,0-14.4-5.3-14.4-13.8c0-6.9,4.3-14.4,13.7-14.4c8.7,0,12.1,6.8,12.1,13.5c0,1.4-0.2,2.7-0.3,3.3H444.9z M454.8,30
		c0-2-0.9-5.5-4.8-5.5c-3.5,0-5,3.2-5.2,5.5H454.8z"/>
	<path class="st0" d="M467.7,28.5c0-4-0.1-6.6-0.2-8.9h7.2l0.3,5h0.2c1.4-3.9,4.7-5.6,7.3-5.6c0.8,0,1.2,0,1.8,0.1V27
		c-0.6-0.1-1.3-0.2-2.3-0.2c-3.1,0-5.2,1.7-5.7,4.3c-0.1,0.6-0.2,1.2-0.2,1.9v13.7h-8.4V28.5z"/>
</g>
<g id="COOKIES">
	<path class="st0" d="M69.9,30.6c0.6-0.8,1.2-1.6,1.6-2.5c1.5-2.6,2.3-5.4,2.6-8.4c0-0.4-0.2-0.8-0.6-1c-0.4-0.2-0.8-0.1-1.2,0.1
		c-2.2,1.9-5,3-8,3c-2,0-4-0.5-5.8-1.5c-3.3-1.9-5.6-5.3-6-9.1c-0.1-0.5-0.5-0.9-1-0.9c-1.3,0-2.5-0.4-3.7-1c-2.8-1.6-4.4-4.8-3.9-8
		c0.1-0.4-0.1-0.8-0.5-1c-0.3-0.2-0.8-0.2-1.1,0c-3,1.9-5.5,4.5-7.2,7.6c-1.1,1.9-1.8,4-2.2,6.1c-0.4,0-0.7,0-1,0
		c-11.4,0-20.7,9.3-20.7,20.7c0,11.4,9.3,20.7,20.7,20.7c2,0,3.8-0.3,5.6-0.8c3.8,5.5,9.9,8.7,16.6,8.7c11.1,0,20.1-9,20.1-20.1
		C74.2,38.5,72.7,34.1,69.9,30.6z M37,8.8c1.2-2.2,2.9-4.1,4.8-5.6c0.2,3.3,2.1,6.3,5,7.9c1.2,0.6,2.4,1.1,3.8,1.2
		c0.8,4.1,3.3,7.8,7,9.8c2.1,1.2,4.5,1.8,6.9,1.8c2.5,0,5-0.7,7.2-2c-0.4,1.8-1,3.5-2,5.1c-3.3,5.9-9.6,9.6-16.4,9.6
		c-3.2,0-6.3-0.8-9.1-2.4C35.2,29.2,32,17.8,37,8.8z M37.5,52.2c-1.8,0.6-3.7,0.9-5.7,0.9c-10.3,0-18.6-8.3-18.6-18.6
		c0-10.3,8.3-18.6,18.6-18.6c0.2,0,0.5,0,0.7,0c-0.8,8,3.1,16.1,10.6,20.2c2.1,1.2,4.5,2,6.9,2.4c-1.4,6.5-6.2,11.6-12.3,13.6
		C37.7,52.2,37.6,52.2,37.5,52.2z M54.1,61c-5.8,0-11.1-2.7-14.5-7.3c6.3-2.5,11.1-8,12.5-15c0.4,0,0.8,0,1.2,0h0
		c5.8,0,11.3-2.4,15.2-6.5c2.3,3.1,3.6,6.9,3.6,10.8C72.1,52.9,64,61,54.1,61z"/>
	<path class="st0" d="M66.7,45.3c-0.5,0.3-0.7,0.9-0.4,1.5c0.2,0.3,0.5,0.9,0.3,1.2c-0.1,0.3-0.7,0.6-0.9,0.6
		c-0.5,0.1-0.9,0.6-0.8,1.2c0,0.2,0,0.9-0.3,1.2c-0.2,0.2-0.5,0.3-1,0.2c-0.6-0.1-1.1,0.4-1.2,1c-0.1,0.6,0.4,1.1,1,1.2
		c0.2,0,0.3,0,0.5,0c1.2,0,1.9-0.5,2.3-0.9c0.6-0.6,0.8-1.5,0.8-2.1c0.5-0.3,1.2-0.7,1.5-1.5c0.3-0.6,0.4-1.7-0.4-3.1
		C67.9,45.2,67.2,45,66.7,45.3z"/>
	<path class="st0" d="M58.2,54.6c-0.3,0.3-0.5,0.6-0.5,1c0,0.4,0.1,0.8,0.4,1.1c0.3,0.3,0.7,0.5,1.1,0.5c0.4,0,0.7-0.1,1-0.4
		c0.6-0.5,0.6-1.5,0.1-2.1C59.8,54.1,58.8,54.1,58.2,54.6z"/>
	<path class="st0" d="M55.8,49.6c-0.1,0-0.2,0-0.3,0c-0.6,0-1.1,0.4-1.2,1c-0.2,0.7,0.2,1.4,0.9,1.6c0.1,0,0.2,0,0.3,0
		c0.6,0,1.1-0.4,1.2-1C56.9,50.5,56.5,49.8,55.8,49.6z"/>
	<path class="st0" d="M49.7,46.3c-0.3,0.3-0.5,0.6-0.5,1c0,0.4,0.1,0.8,0.4,1.1c0.3,0.3,0.7,0.5,1.1,0.5c0.4,0,0.7-0.1,1-0.4
		c0.3-0.3,0.5-0.6,0.5-1c0-0.4-0.1-0.8-0.4-1.1C51.2,45.8,50.3,45.8,49.7,46.3z"/>
	<path class="st0" d="M69.1,37.2c-0.7-0.2-1.4,0.3-1.5,0.9c-0.2,0.7,0.2,1.4,0.9,1.5c0.1,0,0.2,0,0.3,0c0.6,0,1.1-0.4,1.2-0.9
		C70.2,38.1,69.8,37.4,69.1,37.2z"/>
	<path class="st0" d="M63.9,41.5c-0.6-0.6-1.4-1-2.2-1c-0.7,0-1.5,0.3-2,0.8c-0.6,0.5-0.9,1.3-1,2.1c0,0.8,0.2,1.6,0.8,2.1
		c0.6,0.6,1.4,1,2.2,1c0.7,0,1.5-0.3,2-0.8C64.9,44.6,65,42.7,63.9,41.5z M62.3,44.1c-0.3,0.3-0.9,0.3-1.2-0.1
		c-0.2-0.2-0.2-0.4-0.2-0.6c0-0.2,0.1-0.4,0.3-0.6c0.2-0.1,0.4-0.2,0.6-0.2c0.2,0,0.5,0.1,0.6,0.3C62.6,43.2,62.6,43.8,62.3,44.1z"
		/>
	<path class="st0" d="M48.5,54.8c-0.7,0.6-0.7,1.7-0.1,2.4c0.3,0.3,0.8,0.5,1.2,0.5c0.4,0,0.8-0.2,1.1-0.4c0.3-0.3,0.5-0.7,0.5-1.2
		c0-0.4-0.1-0.9-0.4-1.2C50.3,54.3,49.2,54.2,48.5,54.8z"/>
	<path class="st0" d="M43.4,20.2c1,0.9,2.4,1,3.2,1c0.4,0.8,1.1,1.8,2.3,2.3c0.4,0.2,0.8,0.2,1.3,0.2c0.9,0,2-0.4,3-1.1
		c0.5-0.3,0.6-1,0.3-1.5c-0.3-0.5-1-0.6-1.5-0.3c-1,0.6-1.8,0.8-2.4,0.6c-0.8-0.3-1.3-1.3-1.4-1.7c-0.2-0.5-0.7-0.9-1.2-0.8
		c0,0-1.5,0.3-2.3-0.4c-0.4-0.4-0.6-1-0.6-1.9c0-0.6-0.4-1.1-1-1.1c-0.6,0-1.1,0.4-1.1,1C42,18.2,42.5,19.4,43.4,20.2z"/>
	<path class="st0" d="M53.2,27.8c0.1-0.6-0.4-1.1-1-1.2c-0.6-0.1-1.1,0.4-1.2,1c-0.1,1.3,0.4,2,0.8,2.4c0.5,0.5,1.2,0.7,1.8,0.7
		c0.2,0.5,0.7,1,1.4,1.3c0.3,0.1,0.6,0.2,1,0.2c0.5,0,1.1-0.1,1.8-0.6c0.5-0.3,0.7-0.9,0.4-1.5c-0.3-0.5-0.9-0.7-1.5-0.4
		c-0.4,0.2-0.7,0.3-0.9,0.2c-0.2-0.1-0.4-0.5-0.4-0.7c-0.1-0.5-0.6-0.9-1.2-0.8c-0.2,0-0.7,0-0.9-0.2C53.2,28.4,53.2,28,53.2,27.8z"
		/>
	<path class="st0" d="M39.6,13.1c0.5-0.1,0.9-0.7,0.8-1.2c0-0.3,0-0.7,0.1-0.9c0.1-0.2,0.5-0.2,0.7-0.2c0.6,0,1.1-0.4,1.1-1
		c0-0.6-0.4-1.1-1-1.1c-1.3-0.1-2,0.5-2.4,0.9c-0.5,0.6-0.6,1.3-0.7,1.8c-0.5,0.3-1,0.7-1.2,1.4c-0.2,0.6-0.3,1.6,0.5,2.8
		c0.2,0.3,0.5,0.5,0.9,0.5c0.2,0,0.4-0.1,0.6-0.2c0.5-0.3,0.6-1,0.3-1.5c-0.3-0.4-0.4-0.7-0.3-0.9C39.1,13.3,39.5,13.1,39.6,13.1z"
		/>
	<path class="st0" d="M46.9,30.2c-0.3,0.3-0.4,0.6-0.5,1c0,0.4,0.1,0.7,0.4,1c0.3,0.3,0.7,0.5,1.1,0.5c0.4,0,0.7-0.1,1-0.4
		c0.6-0.5,0.6-1.4,0.1-2C48.4,29.8,47.4,29.7,46.9,30.2z"/>
	<path class="st0" d="M61,18.3c0.1,0,0.2,0,0.3,0c0.6,0,1.1-0.4,1.2-0.9c0.2-0.7-0.2-1.3-0.9-1.5c-0.1,0-0.2,0-0.3,0
		c-0.6,0-1.1,0.4-1.2,0.9C60,17.5,60.4,18.1,61,18.3z"/>
	<path class="st0" d="M63.9,30.7c0.7,0,1.3-0.2,1.8-0.7c1.1-1,1.2-2.7,0.2-3.8c-0.5-0.6-1.2-0.9-2-0.9c-0.7,0-1.3,0.2-1.8,0.7
		c-0.5,0.5-0.8,1.1-0.9,1.9c0,0.7,0.2,1.4,0.7,1.9C62.4,30.4,63.1,30.7,63.9,30.7z M63.5,27.6c0.1-0.1,0.3-0.1,0.4-0.1
		c0.1,0,0.3,0,0.4,0.2c0.2,0.2,0.2,0.6,0,0.8c-0.1,0.1-0.3,0.1-0.4,0.1c-0.1,0-0.3,0-0.4-0.2c-0.1-0.1-0.2-0.3-0.1-0.4
		C63.3,27.8,63.4,27.7,63.5,27.6z"/>
	<path class="st0" d="M42.5,25c0.3-0.3,0.5-0.7,0.5-1.1c0-0.4-0.1-0.8-0.4-1.1c-0.6-0.6-1.6-0.7-2.2-0.1c-0.3,0.3-0.5,0.7-0.5,1.1
		c0,0.4,0.1,0.8,0.4,1.1c0.3,0.3,0.7,0.5,1.2,0.5C41.9,25.4,42.3,25.2,42.5,25z"/>
	<path class="st0" d="M71.7,11.1c0.4,0,0.7-0.1,1-0.4c0.6-0.5,0.6-1.4,0.1-2c-0.5-0.6-1.4-0.6-2-0.1c-0.6,0.5-0.6,1.4-0.1,2
		C70.9,10.9,71.3,11.1,71.7,11.1z"/>
	<path class="st0" d="M65.3,5.8c0.1,0,0.2,0,0.3,0c0.6,0,1.1-0.4,1.2-0.9c0.2-0.7-0.2-1.3-0.9-1.5c-0.1,0-0.2,0-0.3,0
		c-0.6,0-1.1,0.4-1.2,0.9c-0.1,0.3,0,0.7,0.1,0.9C64.7,5.5,65,5.7,65.3,5.8z"/>
	<path class="st0" d="M69,17.2c0.4,0,0.8-0.1,1.1-0.4c0.3-0.3,0.5-0.7,0.5-1.1c0-0.4-0.1-0.8-0.4-1.1c-0.6-0.6-1.6-0.7-2.2-0.1
		c-0.6,0.6-0.7,1.6-0.1,2.2C68.1,17,68.5,17.2,69,17.2z"/>
	<path class="st0" d="M26.5,31.8c-1.1-0.4-1.7-0.9-1.9-1.5c-0.2-0.8,0.3-1.8,0.6-2.1c0.3-0.4,0.3-1.1-0.1-1.4
		c-0.3-0.3-1.1-1.2-1-2.1c0-0.6,0.5-1.1,1.2-1.6c0.5-0.3,0.6-1,0.3-1.5c-0.3-0.5-1-0.6-1.5-0.3c-1.3,0.9-2.1,2-2.1,3.2
		c-0.1,1.4,0.6,2.5,1.1,3.2c-0.4,0.8-0.8,2-0.4,3.2c0.4,1.3,1.5,2.3,3.2,3c0.1,0,0.2,0.1,0.4,0.1c0.4,0,0.8-0.3,1-0.7
		C27.4,32.7,27.1,32,26.5,31.8z"/>
	<path class="st0" d="M37.6,45.8c-0.6-0.1-1.1,0.4-1.2,1c0,0.5-0.2,0.8-0.3,0.9c-0.2,0.1-0.6,0-0.8,0c-0.5-0.2-1.1,0-1.4,0.5
		c-0.1,0.2-0.4,0.6-0.7,0.6c-0.2,0-0.5-0.2-0.6-0.3c-0.4-0.4-1.1-0.3-1.5,0.1c-0.4,0.4-0.3,1.1,0.1,1.5c0.7,0.7,1.4,0.8,2,0.8
		c0.2,0,0.3,0,0.4,0c0.7-0.1,1.3-0.6,1.7-1c0.5,0.1,1.2,0.1,1.9-0.3c0.5-0.3,1.2-1,1.4-2.5C38.7,46.4,38.2,45.9,37.6,45.8z"/>
	<path class="st0" d="M26,46.7c-1-0.2-1.7-0.5-1.9-1c-0.3-0.7,0-1.6,0.1-1.9c0.3-0.5,0.1-1.1-0.4-1.4c0,0-1.2-0.7-1.3-1.7
		c-0.1-0.5,0.2-1,0.8-1.6c0.4-0.4,0.4-1.1,0-1.5c-0.4-0.4-1.1-0.4-1.5,0c-1.3,1.3-1.5,2.5-1.4,3.4c0.1,1.2,0.9,2.2,1.5,2.7
		c-0.2,0.8-0.4,1.9,0.2,3c0.6,1.1,1.7,1.9,3.5,2.2c0.1,0,0.1,0,0.2,0c0.5,0,1-0.4,1-0.9C27,47.3,26.6,46.7,26,46.7z"/>
	<path class="st0" d="M31.4,38.9c0.1,0,0.1,0,0.2,0c0.6-0.1,0.9-0.7,0.8-1.2c-0.1-0.5-0.1-0.8,0.1-0.9c0.2-0.2,0.6-0.2,0.8-0.2
		c0.6,0.1,1.1-0.3,1.2-0.9c0-0.2,0.2-0.7,0.5-0.8c0.2-0.1,0.5,0,0.7,0.1c0.5,0.2,1.2,0,1.4-0.5c0.2-0.5,0-1.2-0.5-1.4
		c-1.2-0.5-2-0.3-2.6-0.1c-0.7,0.3-1.1,0.9-1.3,1.4c-0.5,0.1-1.2,0.3-1.7,0.8c-0.4,0.5-0.9,1.3-0.6,2.8
		C30.4,38.5,30.9,38.9,31.4,38.9z"/>
	<path class="st0" d="M18.3,30c-0.2,0-0.3,0-0.5,0.1c-0.4,0.1-0.6,0.4-0.8,0.7c-0.2,0.3-0.2,0.7,0,1.1c0.2,0.6,0.7,0.9,1.3,0.9
		c0.2,0,0.3,0,0.5-0.1c0.7-0.3,1.1-1.1,0.8-1.8C19.4,30.4,18.9,30,18.3,30z"/>
	<path class="st0" d="M40.1,38.8c-0.5-0.4-1.3-0.3-1.7,0.3c-0.4,0.6-0.3,1.3,0.3,1.7c0.2,0.2,0.5,0.2,0.7,0.2c0.4,0,0.8-0.2,1-0.5
		C40.7,40,40.6,39.3,40.1,38.8z"/>
	<path class="st0" d="M28.9,22.9c0.4-0.1,0.6-0.4,0.8-0.7c0.2-0.3,0.2-0.7,0-1.1c-0.3-0.7-1.1-1.1-1.8-0.8c-0.7,0.3-1.1,1.1-0.8,1.8
		c0.2,0.6,0.7,0.9,1.3,0.9C28.6,23,28.8,23,28.9,22.9z"/>
	<path class="st0" d="M45.9,42.9c-0.4-1-1.4-1.8-2.5-1.8c-0.3,0-0.6,0.1-0.9,0.2c-0.7,0.3-1.2,0.7-1.5,1.4c-0.3,0.7-0.3,1.4-0.1,2.1
		c0.4,1,1.4,1.8,2.5,1.8c0.3,0,0.6-0.1,0.9-0.2C45.7,45.9,46.5,44.3,45.9,42.9z M43.6,44.4c-0.3,0.1-0.6,0-0.7-0.3
		c-0.1-0.1,0-0.3,0-0.4c0.1-0.1,0.2-0.2,0.3-0.3c0.1,0,0.1,0,0.2,0c0.2,0,0.5,0.1,0.5,0.4C44.1,43.9,43.9,44.3,43.6,44.4z"/>
	<path class="st0" d="M29.3,41.8c-0.2,0-0.4,0-0.6,0.1c-0.4,0.1-0.7,0.4-0.9,0.8c-0.2,0.4-0.2,0.8,0,1.2c0.2,0.6,0.8,1,1.5,1
		c0.2,0,0.4,0,0.6-0.1c0.8-0.3,1.2-1.2,0.9-2C30.6,42.2,30,41.8,29.3,41.8z"/>
</g>
</svg>
