<svg id="Layer_1" data-name="Layer 1" xmlns="http://www.w3.org/2000/svg" viewBox="0 0 395.14 58.37"><defs><style>.cls-1{fill:#fff;}.cls-2{fill:#ec5f54;}</style></defs><title>logo</title><path class="cls-1" d="M7.79,19.45l2.65,14c0.28,1.6.5,3.1,0.72,4.53h0.11c0.22-1.38.44-2.93,0.66-4.42l2.27-14.15h7.08L15.76,40.29c-1.33,5.09-3.1,10.34-6,13.82a14.39,14.39,0,0,1-6.14,4.26L1.38,52.12A10.91,10.91,0,0,0,5,49.86a9.72,9.72,0,0,0,2.27-3.21,2.85,2.85,0,0,0,.39-1.16,3.22,3.22,0,0,0-.22-1L0,19.45H7.79Z"/><path class="cls-1" d="M42.84,32.89c0,11.28-6.25,14-10.34,14-6.47,0-10.34-5.09-10.34-13.88,0-9.73,5.09-14,10.45-14C39,19,42.84,24.37,42.84,32.89Zm-13.49,0c0,4.64.72,8.51,3.32,8.51,2.32,0,2.93-4.53,2.93-8.51,0-3.7-.61-8.4-3-8.4C29.91,24.48,29.35,29.18,29.35,32.89Z"/><path class="cls-1" d="M66.72,38.25c0,2.88.11,5.69,0.22,8.24H60.7l-0.39-2.87H60.2A7.63,7.63,0,0,1,54,46.93c-5.14,0-7.24-3.81-7.24-11.11V19.45H54V35c0,3.54.66,5.8,2.71,5.8A2.57,2.57,0,0,0,59,39a5.42,5.42,0,0,0,.44-2.32V19.45h7.24v18.8Z"/><path class="cls-1" d="M71.86,27.58c0-2.71-.11-5.64-0.22-8.13h6.3l0.39,3.93H78.5C79.71,20.5,81.87,19,83.86,19a6.08,6.08,0,0,1,1.55.11v7.19a6.57,6.57,0,0,0-1.55-.11c-1.55,0-3.59,1.05-4.42,3.87a11,11,0,0,0-.28,2.71V46.49h-7.3V27.58Z"/><path class="cls-2" d="M88.34,46.49c0.06-1.55.22-4.59,0.22-6.41V8.23h4.26V22.88h0.11a6,6,0,0,1,5.64-3.59c4.15,0,7.3,4.81,7.3,13.54,0,9.67-4,14.1-8.13,14.1-2.82,0-4.26-1.66-5.31-3.93H92.26L92,46.49H88.34ZM92.81,37A5.11,5.11,0,0,0,93,38.69c1,4,2.82,4.7,4,4.7,3.43,0,4.64-4.64,4.64-10.34,0-5.36-1.27-10.12-4.7-10.12-2,0-3.65,2.49-4,4.75a10.7,10.7,0,0,0-.11,1.88V37Z"/><path class="cls-2" d="M110.61,26.64c0-2.27-.17-4.92-0.22-6.91h3.81l0.22,4.2h0.11c0.88-2.54,3.15-4.64,5.64-4.64,0.33,0,.61.06,0.88,0.06v4.37a4.48,4.48,0,0,0-.88-0.06c-2.71,0-4.7,2.49-5.14,5.58a16.31,16.31,0,0,0-.17,2.43V46.49h-4.26V26.64Z"/><path class="cls-2" d="M140,33.11c0,10.34-4.81,13.82-8.9,13.82-4.81,0-8.68-4.37-8.68-13.77,0-9.78,4.37-13.88,9-13.88C136.15,19.29,140,23.76,140,33.11Zm-13.32,0c0,4.42.77,10.45,4.64,10.45,3.65,0,4.37-6.3,4.37-10.45S135,22.71,131.23,22.71,126.7,29,126.7,33.11Z"/><path class="cls-2" d="M146.55,19.73l2.6,13.1c0.5,2.87,1.11,5.75,1.44,8.51h0.22c0.39-2.76,1.05-5.86,1.66-8.4l3.1-13.21h3.26l2.93,12.83c0.66,3,1.27,5.8,1.71,8.79h0.22c0.33-2.82.83-5.58,1.44-8.62l2.54-13h4.26l-6.74,26.76h-3.48l-3.1-13a74.24,74.24,0,0,1-1.49-8H157c-0.44,3.15-.94,5.64-1.55,8.18l-3.21,12.83h-3.59l-6.52-26.76h4.42Z"/><path class="cls-2" d="M175,42.06a8.46,8.46,0,0,0,4.31,1.38,3.62,3.62,0,0,0,3.93-3.87c0-2-.72-3.43-3.43-5.25-3.48-2.27-5.36-4.53-5.36-7.63a7.19,7.19,0,0,1,7.35-7.41,9.2,9.2,0,0,1,4.81,1.38l-1.16,3.21a6.29,6.29,0,0,0-3.54-1.16,3.28,3.28,0,0,0-3.48,3.37c0,1.82.66,2.82,3.32,4.64,3.1,2,5.53,4.42,5.53,8.13,0,5.36-3.65,8-8,8a9.15,9.15,0,0,1-5.31-1.55Z"/><path class="cls-2" d="M196.24,12.82a2.49,2.49,0,0,1-2.6,2.76,2.51,2.51,0,0,1-2.43-2.76,2.55,2.55,0,0,1,2.49-2.76A2.5,2.5,0,0,1,196.24,12.82Zm-4.59,33.67V19.73h4.26V46.49h-4.26Z"/><path class="cls-2" d="M201.83,26.64c0-3.15-.17-4.75-0.22-6.91h3.7l0.22,3.21h0.11a6.79,6.79,0,0,1,6.14-3.65c3.7,0,6.47,2.76,6.47,9.23v18H214V29.24c0-3.15-.61-6.36-3.7-6.36-1.77,0-3.48,1.49-4,4.37a15,15,0,0,0-.17,2.38V46.49h-4.26V26.64Z"/><path class="cls-2" d="M240.58,19.73c-0.06,1.88-.22,4.26-0.22,8.35v15c0,7-.88,9.67-2.65,11.61a9.31,9.31,0,0,1-7.13,2.88,12.74,12.74,0,0,1-5.86-1.33l1-3.32a11,11,0,0,0,5,1.16c3.37,0,5.47-2.1,5.47-8.18V43.17H236a5.44,5.44,0,0,1-5.14,3.26c-4.75,0-7.85-5.36-7.85-13.21,0-9.84,4.48-13.93,8.4-13.93,2.88,0,4.2,1.88,5,3.48h0.11l0.22-3h3.82ZM236.16,29a7.15,7.15,0,0,0-.22-1.94c-0.5-1.82-1.44-4.09-3.87-4.09-3.1,0-4.75,4.15-4.75,10.06,0,6.85,2.16,10,4.75,10,1.27,0,2.93-.61,3.81-3.81a9.41,9.41,0,0,0,.28-2.43V29Z"/><path class="cls-1" d="M245.83,46.49v-27h7.24v27h-7.24Z"/><path class="cls-1" d="M258.16,27.58c0-3-.17-5.58-0.22-8.13h6.25l0.33,3.1h0.11A7.76,7.76,0,0,1,271.2,19c5.14,0,7.19,4.09,7.19,10.12V46.49h-7.24V29.57c0-2.32-.55-4.48-2.65-4.48-1.22,0-2.21.83-2.71,2.43A7.08,7.08,0,0,0,265.4,30V46.49h-7.24V27.58Z"/><path class="cls-1" d="M283.25,40a10.12,10.12,0,0,0,4.86,1.44C290,41.4,291,40.57,291,39c0-1.38-.77-2.27-3.15-3.65-4.42-2.49-5.47-5.31-5.47-7.79,0-4.86,3.48-8.51,8.9-8.51a12.72,12.72,0,0,1,5.47,1.22l-1.27,5.31a7.51,7.51,0,0,0-3.76-1.11c-1.82,0-2.71,1.11-2.71,2.32s0.61,1.88,3.15,3.37c4,2.27,5.47,5.09,5.47,8.18,0,5.53-4,8.51-9.56,8.51a11.9,11.9,0,0,1-6.19-1.55Z"/><path class="cls-1" d="M308.63,12.27a3.69,3.69,0,0,1-3.81,3.92,3.64,3.64,0,0,1-3.59-3.92A3.71,3.71,0,1,1,308.63,12.27Zm-7.24,34.22v-27h7.24v27h-7.24Z"/><path class="cls-1" d="M333.67,19.45c-0.11,2.43-.28,5.31-0.28,8.57V43.44c0,5.8-1.05,9-3.26,11.11-2,1.88-4.81,3-8.79,3a17.26,17.26,0,0,1-6.74-1.27l1.33-5.58a12.67,12.67,0,0,0,5.2,1.16c3.65,0,5.09-2.43,5.09-6.58V43.61h-0.11a5.46,5.46,0,0,1-4.87,2.71c-6.08,0-8.46-6.63-8.46-13.1,0-9,4.09-14.21,9.12-14.21a5.42,5.42,0,0,1,5,3.15H327l0.39-2.71h6.3Zm-7.46,9.84a7.2,7.2,0,0,0-.28-2,2.63,2.63,0,0,0-2.32-2.21c-2.6,0-3.65,3.54-3.65,8,0,5,1.44,7.57,3.48,7.57a2.57,2.57,0,0,0,2.43-1.94,6.76,6.76,0,0,0,.33-2.16V29.29Z"/><path class="cls-1" d="M338.42,8.23h7.24v14h0.11a8.44,8.44,0,0,1,2.32-2.32,7.31,7.31,0,0,1,3.65-.94c5,0,6.91,4.2,6.91,11.06V46.49h-7.24V30.07c0-2.65-.5-5-2.65-5-1.22,0-2.27.72-2.82,2.54a10.79,10.79,0,0,0-.28,2V46.49h-7.24V8.23Z"/><path class="cls-1" d="M372.25,12.15v7.3h5.31v5.14h-5.31V36.92c0,3.15,1.33,3.93,2.76,3.93a9.93,9.93,0,0,0,1.88-.17L377,46.32a17.06,17.06,0,0,1-4.42.5,7.3,7.3,0,0,1-5.2-1.71c-1.49-1.44-2.32-3.48-2.32-7.74V24.59H361.8V19.45H365V13.87Z"/><path class="cls-1" d="M380.71,40a10.12,10.12,0,0,0,4.86,1.44c1.88,0,2.93-.83,2.93-2.43,0-1.38-.77-2.27-3.15-3.65-4.42-2.49-5.47-5.31-5.47-7.79,0-4.86,3.48-8.51,8.9-8.51a12.72,12.72,0,0,1,5.47,1.22L393,25.53a7.51,7.51,0,0,0-3.76-1.11c-1.82,0-2.71,1.11-2.71,2.32s0.61,1.88,3.15,3.37c4,2.27,5.47,5.09,5.47,8.18,0,5.53-4,8.51-9.56,8.51a11.9,11.9,0,0,1-6.19-1.55Z"/><path class="cls-2" d="M249.54,14.18a7.46,7.46,0,0,1-5.42-2,6.87,6.87,0,0,1-2-5.06,7,7,0,0,1,2-5.09A7.29,7.29,0,0,1,249.54,0,7.92,7.92,0,0,1,255,1.93a6.85,6.85,0,0,1,2.24,5.23,6.62,6.62,0,0,1-2.28,5.2A8.12,8.12,0,0,1,249.54,14.18Zm0-9.68a2.78,2.78,0,0,0-2.23.71,2.62,2.62,0,0,0-.71,2A2.34,2.34,0,0,0,247.27,9a3.19,3.19,0,0,0,2.27.68,3.74,3.74,0,0,0,2.52-.74,2.1,2.1,0,0,0,.71-1.78A2.34,2.34,0,0,0,252,5.27,3.54,3.54,0,0,0,249.54,4.5Z"/></svg>