<svg id="Layer_1" data-name="Layer 1" xmlns="http://www.w3.org/2000/svg" viewBox="0 0 383.89 349.7"><defs><style>.cls-1{fill:#ec5e53;}.cls-2{fill:#f2f2f2;}.cls-3{fill:#1384ac;}</style></defs><title>male-female</title><circle class="cls-1" cx="86.52" cy="29.33" r="29.33"/><path class="cls-1" d="M120.62,102.7l28.65,93.15L173,188.53,141.48,85.88c-6.52-21.5-23.1-20.2-23.1-20.2H105.64a19.11,19.11,0,1,1-38.23,0H54.67s-16.58-1.3-23.1,20.2L0,188.53l23.78,7.31L52.42,102.7l4.4,1.35L16.42,235.44h39.4V349.7h27V235.44h7.43V349.7h27V235.44h39.4L116.22,104.05Z"/><rect class="cls-2" x="196.51" width="10.86" height="349.7"/><circle class="cls-3" cx="316.24" cy="29.33" r="29.33"/><path class="cls-3" d="M357,65.68H335.26a19,19,0,1,1-38,0H275.52S251,64.92,248.59,88.27V200.13h25.2V110h4.78V349.7h32.15V200.13h11.06V349.7h32.15V110h4.78v90.14h25.2V88.27C381.46,64.92,357,65.68,357,65.68Z"/></svg>