<?xml version="1.0" encoding="utf-8"?>
<!-- Generator: Adobe Illustrator 19.1.0, SVG Export Plug-In . SVG Version: 6.00 Build 0)  -->
<svg version="1.1" id="Layer_1" xmlns="http://www.w3.org/2000/svg" xmlns:xlink="http://www.w3.org/1999/xlink" x="0px" y="0px"
	 viewBox="-1429 531 20 20" style="enable-background:new -1429 531 20 20;" xml:space="preserve">
<style type="text/css">
	.st0{fill:#FE504F;}
</style>
<path class="st0" d="M-1411.6,546.9c-1.1-0.9-2.8-1.3-4.3-1.7c-0.3-0.1-0.6-0.5-0.7-1c-0.1-0.3-0.2-1,0.4-1.6c0.4-0.4,0.8-0.8,1-1.3
	c0.8-1,1.3-2,1.5-3.1c0.2-0.9,0.1-1.9-0.2-2.8c-0.3-1.1-1.1-2-2.3-2.7c-1-0.5-2.2-0.8-3.3-0.8c-0.7,0-1.4,0.2-1.9,0.5
	c-0.5,0.3-0.8,0.6-1,1.1c-0.8,0.1-1.4,0.6-1.8,1.3c-0.4,0.8-0.4,2-0.1,3.4c0.3,1.2,0.9,2.3,1.5,3c0.2,0.5,0.4,1,0.9,1.3
	c0.6,0.5,0.5,1.3,0.4,1.6c-0.1,0.6-0.5,0.9-0.7,1c-1.5,0.4-3.1,0.8-4.3,1.7c-1.1,0.9-1.6,2-1.6,3.6c0,0.3,0.2,0.5,0.5,0.5h17
	c0.3,0,0.5-0.2,0.5-0.5C-1410,548.9-1410.5,547.7-1411.6,546.9L-1411.6,546.9z M-1423.2,535.3c0.2-0.5,0.6-0.8,1.2-0.8
	c0.2,0,0.4-0.2,0.5-0.4c0.2-0.8,1.2-1.1,2.1-1.2c1.8-0.1,4,0.8,4.6,2.7c0.3,1,0.3,1.9,0,2.9c-0.1-0.7-0.2-1.2-0.3-1.6
	c-0.1-0.4-0.4-0.9-0.8-0.9c-2.6,0-4.6-0.3-5.1-0.9c-0.1-0.1-0.4-0.2-0.5-0.1s-0.3,0.3-0.3,0.5c0,1.4-0.5,2.4-0.8,2.6
	c-0.1,0.1-0.2,0.2-0.2,0.4c0,0.1,0,0.3,0,0.4C-1423.5,537.6-1423.6,536.1-1423.2,535.3L-1423.2,535.3z M-1427,550
	c0.1-1,0.5-1.8,1.2-2.3c0.8-0.6,1.9-1.1,3.9-1.5c0.7-0.2,1.2-0.8,1.4-1.7c0.2-1,0-2-0.7-2.6c-0.8-0.6-0.8-1.8-0.8-2.9
	c0-0.1,0-0.2,0-0.3c0.4-0.4,0.8-1.3,0.9-2.4c0.6,0.2,1.4,0.4,2.4,0.5c0.7,0.1,1.6,0.1,2.4,0.1c0.2,0.3,0.4,1.3,0.4,2.5
	c-0.1,0.7-0.3,1.7-1,2.4c-0.7,0.6-1,1.6-0.8,2.6c0.2,0.9,0.8,1.6,1.5,1.8c1.9,0.5,3.1,0.9,3.9,1.5c0.7,0.6,1.1,1.3,1.2,2.3H-1427z"
	/>
</svg>
