<?xml version="1.0" encoding="utf-8"?>
<!-- Generator: Adobe Illustrator 19.1.0, SVG Export Plug-In . SVG Version: 6.00 Build 0)  -->
<svg version="1.1" id="Layer_1" xmlns="http://www.w3.org/2000/svg" xmlns:xlink="http://www.w3.org/1999/xlink" x="0px" y="0px"
	 viewBox="-1429 531 20 20" style="enable-background:new -1429 531 20 20;" xml:space="preserve">
<style type="text/css">
	.st0{fill:#FE504F;}
</style>
<path class="st0" d="M-1411.1,536.6l-4.5-4.5c-0.1-0.1-0.2-0.1-0.4-0.1h-9.5c-0.8,0-1.5,0.7-1.5,1.5v6c0,0.3,0.2,0.5,0.5,0.5
	s0.5-0.2,0.5-0.5v-6c0-0.3,0.2-0.5,0.5-0.5h8.5v3.5c0,0.8,0.7,1.5,1.5,1.5h3.5v11.5c0,0.3-0.2,0.5-0.5,0.5h-13
	c-0.3,0-0.5-0.2-0.5-0.5v-1c0-0.3-0.2-0.5-0.5-0.5s-0.5,0.2-0.5,0.5v1c0,0.8,0.7,1.5,1.5,1.5h13c0.8,0,1.5-0.7,1.5-1.5V537
	C-1411,536.9-1411.1,536.7-1411.1,536.6z M-1416,536.5v-3.3l3.8,3.8h-3.3C-1415.8,537-1416,536.8-1416,536.5z"/>
<path class="st0" d="M-1414.1,543.7c0,0-0.8-0.9-2.1-1.8c-1-0.7-2-1.2-3-1.5c0,0-0.1,0-0.1,0c-0.7-0.2-1.4-0.3-2.1-0.3
	s-1.4,0.1-2.1,0.3c0,0-0.1,0-0.1,0c-1,0.3-2,0.8-3,1.5c-1.3,0.9-2.1,1.8-2.1,1.8c-0.2,0.2-0.2,0.5,0,0.7c0,0,0.8,0.9,2.1,1.8
	c1.7,1.2,3.6,1.8,5.2,1.8s3.5-0.6,5.2-1.8c1.3-0.9,2.1-1.8,2.1-1.8C-1414,544.1-1414,543.9-1414.1,543.7L-1414.1,543.7z
	 M-1419.7,541.3c0.5,0.5,0.7,1.1,0.7,1.7c0,1.4-1.1,2.5-2.5,2.5s-2.5-1.1-2.5-2.5c0-0.7,0.2-1.3,0.7-1.7c0.6-0.2,1.2-0.3,1.8-0.3
	C-1420.9,541-1420.3,541.1-1419.7,541.3z M-1421.5,547c-1.9,0-3.6-0.9-4.6-1.6c-0.7-0.5-1.3-1-1.7-1.4c0.5-0.5,1.6-1.4,3-2.1
	c-0.1,0.4-0.2,0.8-0.2,1.1c0,1.9,1.6,3.5,3.5,3.5c1.9,0,3.5-1.6,3.5-3.5c0-0.4-0.1-0.8-0.2-1.1c0.5,0.3,1,0.5,1.3,0.8
	c0.7,0.5,1.3,1,1.7,1.4C-1416.1,544.8-1418.6,547-1421.5,547L-1421.5,547z"/>
</svg>
