<?xml version="1.0" encoding="utf-8"?>
<!-- Generator: Adobe Illustrator 19.1.0, SVG Export Plug-In . SVG Version: 6.00 Build 0)  -->
<svg version="1.1" id="Layer_1" xmlns="http://www.w3.org/2000/svg" xmlns:xlink="http://www.w3.org/1999/xlink" x="0px" y="0px"
	 viewBox="-1224 446 430 190" style="enable-background:new -1224 446 430 190;" xml:space="preserve">
<style type="text/css">
	.st0{fill:#FE504F;}
</style>
<path class="st0" d="M-961.5,446h-15c-1.6,0-2.8,1.3-2.8,2.8v24.4c0,1.6,1.3,2.8,2.8,2.8h15c1.6,0,2.8-1.3,2.8-2.8v-24.4
	C-958.7,447.3-959.9,446-961.5,446z M-960.6,473.2c0,0.5-0.4,0.9-0.9,0.9h-15c-0.5,0-0.9-0.4-0.9-0.9v-1.9h16.9L-960.6,473.2
	L-960.6,473.2z M-960.6,470.4h-16.9v-18.7h16.9V470.4L-960.6,470.4z M-960.6,450.7h-16.9v-1.9c0-0.5,0.4-0.9,0.9-0.9h15
	c0.5,0,0.9,0.4,0.9,0.9L-960.6,450.7L-960.6,450.7z M-967.1,449.3c0,0.3-0.2,0.5-0.5,0.5h-2.8c-0.3,0-0.5-0.2-0.5-0.5
	s0.2-0.5,0.5-0.5h2.8C-967.3,448.8-967.1,449-967.1,449.3L-967.1,449.3z M-968.1,472.7c0,0.3-0.2,0.5-0.5,0.5h-0.9
	c-0.3,0-0.5-0.2-0.5-0.5c0-0.3,0.2-0.5,0.5-0.5h0.9C-968.3,472.2-968.1,472.5-968.1,472.7z"/>
<path class="st0" d="M-874.5,455.9l-9.4-9.4c-0.5-0.5-1.1-0.7-1.8-0.5c-0.3,0.1-0.6,0.3-0.9,0.5c-0.2,0.2-0.4,0.5-0.5,0.8
	c-0.4,1.4-1.2,2.6-2.2,3.7c-1.5,1.4-3.3,2.5-5.3,3.7c-2.1,1.2-4.3,2.5-6.1,4.3c-1.5,1.5-2.6,3.2-3.2,5.2c-0.2,0.7,0,1.4,0.5,1.9
	l9.4,9.4c0.5,0.5,1.1,0.7,1.8,0.5c0.3-0.1,0.6-0.3,0.9-0.5c0.2-0.2,0.4-0.5,0.5-0.8c0.4-1.4,1.2-2.6,2.2-3.7
	c1.5-1.5,3.3-2.5,5.3-3.7c2.1-1.2,4.3-2.5,6.1-4.3c1.5-1.5,2.6-3.2,3.2-5.2C-873.9,457.1-874.1,456.4-874.5,455.9L-874.5,455.9z
	 M-892.8,474.1l-9.4-9.4c2.7-8.6,14.2-8.2,16.9-16.9l9.4,9.4C-878.5,465.9-890.1,465.5-892.8,474.1L-892.8,474.1z M-885.7,460
	c-0.3-0.3-0.6-0.4-0.9-0.5c-0.3-0.1-0.6-0.1-0.9-0.1c-0.3,0-0.6,0.1-0.9,0.2c-0.3,0.1-0.6,0.3-1,0.4c-0.5-0.6-1-1.1-1.5-1.7
	c0.2-0.2,0.4-0.3,0.7-0.3c0.2,0,0.4,0,0.6,0.1c0.2,0.1,0.4,0.1,0.5,0.1c0.2,0,0.3,0,0.4-0.1c0.1-0.1,0.2-0.3,0.2-0.5
	c0-0.2-0.1-0.4-0.2-0.5c-0.2-0.2-0.4-0.4-0.7-0.4c-0.3,0-0.6,0-0.9,0c-0.3,0.1-0.6,0.2-0.8,0.3c-0.3,0.2-0.5,0.3-0.6,0.5l-0.2-0.2
	c-0.1-0.1-0.2-0.1-0.3-0.1c-0.1,0-0.2,0-0.3,0.1c-0.1,0.1-0.1,0.2-0.1,0.3c0,0.1,0,0.2,0.1,0.2c0.1,0.1,0.1,0.1,0.2,0.2
	c-0.2,0.3-0.4,0.6-0.6,0.9c-0.2,0.3-0.2,0.7-0.3,1c0,0.3,0,0.6,0.1,0.9c0.1,0.3,0.3,0.5,0.6,0.7c0.4,0.4,1,0.5,1.6,0.5
	c0.6,0,1.2-0.2,1.9-0.6c0.6,0.6,1.1,1.3,1.7,1.9c-0.2,0.2-0.4,0.3-0.6,0.3c-0.2,0-0.3,0-0.5,0c-0.1,0-0.3-0.1-0.4-0.2
	c-0.1-0.1-0.2-0.2-0.4-0.2c-0.1-0.1-0.2-0.1-0.4-0.1c-0.1,0-0.3,0.1-0.4,0.2c-0.2,0.1-0.2,0.3-0.2,0.5c0,0.2,0.1,0.3,0.2,0.5
	c0.2,0.2,0.4,0.3,0.6,0.4s0.5,0.2,0.8,0.2c0.3,0,0.6,0,1-0.2c0.3-0.1,0.7-0.4,1-0.7c0.2,0.2,0.3,0.3,0.5,0.5
	c0.1,0.1,0.2,0.1,0.3,0.1c0.1,0,0.2-0.1,0.3-0.1c0.1-0.1,0.1-0.2,0.1-0.3c0-0.1-0.1-0.2-0.1-0.2c-0.2-0.1-0.3-0.3-0.5-0.4
	c0.3-0.3,0.5-0.7,0.7-1.1c0.2-0.4,0.3-0.7,0.3-1c0-0.3,0-0.6-0.1-0.9C-885.2,460.4-885.4,460.2-885.7,460L-885.7,460z M-890.9,460.6
	c-0.3,0-0.5-0.1-0.7-0.3c-0.1-0.1-0.1-0.2-0.2-0.3c0-0.1-0.1-0.2,0-0.4c0-0.1,0.1-0.3,0.1-0.4c0.1-0.1,0.2-0.3,0.3-0.4
	c0.5,0.5,1,1,1.4,1.5C-890.3,460.5-890.6,460.6-890.9,460.6L-890.9,460.6z M-886.5,462.5c-0.1,0.2-0.2,0.3-0.3,0.4
	c-0.5-0.5-1-1.1-1.6-1.7c0.1-0.1,0.3-0.1,0.4-0.2c0.2-0.1,0.3-0.1,0.5-0.1c0.2,0,0.3,0,0.5,0c0.2,0,0.3,0.1,0.4,0.2
	c0.1,0.1,0.2,0.3,0.2,0.4c0,0.1,0,0.3,0,0.5C-886.3,462.2-886.4,462.3-886.5,462.5z M-890.2,466.8c0.2-0.1,0.5-0.1,0.6,0
	c0.2,0.2,0.2,0.5,0,0.7c0,0,0,0,0,0l0,0c-0.6,0.5-1.1,0.9-1.6,1.4c-0.5,0.5-0.9,1-1.3,1.5l-0.6,0.8c0,0,0,0.1-0.1,0.1
	c-0.2,0.2-0.5,0.2-0.7,0c-0.2-0.2-0.2-0.4-0.1-0.6l0,0l0.6-0.9c0.4-0.5,0.9-1.1,1.4-1.6C-891.4,467.7-890.8,467.2-890.2,466.8
	L-890.2,466.8z M-886.8,453.2c0.5-0.5,0.9-1,1.3-1.5l0.6-0.9c0,0,0-0.1,0.1-0.1c0.2-0.2,0.5-0.2,0.7,0c0.2,0.2,0.2,0.5,0,0.6l0,0
	l-0.6,0.9c-0.4,0.5-0.9,1.1-1.4,1.6c-0.5,0.5-1.1,1-1.7,1.5l0,0c-0.2,0.2-0.5,0.2-0.7,0c-0.2-0.2-0.2-0.5,0-0.7c0,0,0.1-0.1,0.1-0.1
	C-887.8,454.2-887.3,453.7-886.8,453.2L-886.8,453.2z"/>
<path class="st0" d="M-1210.9,622.9v-13.1c-7.2,0-13.1,5.9-13.1,13.1s5.9,13.1,13.1,13.1s13.1-5.9,13.1-13.1c0-2.1-0.5-4.1-1.4-5.9
	L-1210.9,622.9L-1210.9,622.9z M-1197.3,613.3c-2.2-4.3-6.6-7.3-11.7-7.3v13.1L-1197.3,613.3L-1197.3,613.3z"/>
<path class="st0" d="M-1129,607.9c8.3,0,15,6.7,15,15c0,5.6-3.1,10.6-7.7,13.1h-14.5c-4.6-2.6-7.7-7.5-7.7-13.1
	C-1144,614.6-1137.3,607.9-1129,607.9L-1129,607.9z M-1120.5,631.4c2.3-2.3,3.5-5.3,3.5-8.5h-2.6V621h2.5c-0.2-1.3-0.6-2.6-1.2-3.8
	h-3.1v-1.9h1.9c-0.3-0.3-0.6-0.7-0.9-1c-1.4-1.4-3-2.3-4.7-2.9v2h-1.9V611c-0.6-0.1-1.2-0.1-1.9-0.1s-1.3,0-1.9,0.1v2.5h-1.9v-2
	c-1.8,0.6-3.4,1.6-4.7,2.9c-0.3,0.3-0.6,0.7-0.9,1h1.9v1.9h-3.1c-0.6,1.2-1,2.4-1.2,3.8h2.5v1.9h-2.6c0,3.2,1.2,6.2,3.5,8.5
	c0.3,0.3,0.6,0.6,1,0.9h5.6l1.1-15h1.6l1.1,15h5.6C-1121.2,632-1120.8,631.7-1120.5,631.4L-1120.5,631.4z"/>
<path class="st0" d="M-1201.2,467.5c-1.2-1-3.1-1.5-4.8-1.9c-0.3-0.1-0.7-0.5-0.8-1.1c-0.1-0.3-0.2-1.2,0.5-1.7
	c0.5-0.4,0.8-0.9,1.1-1.5c0.9-1.1,1.4-2.2,1.7-3.4c0.2-1,0.1-2.1-0.2-3.2c-0.4-1.2-1.2-2.3-2.5-3c-1.1-0.6-2.4-0.9-3.7-0.9
	c-0.8,0-1.6,0.2-2.1,0.6c-0.5,0.3-0.9,0.7-1.1,1.2c-0.9,0.1-1.6,0.6-2,1.5c-0.4,0.9-0.4,2.3-0.1,3.7c0.3,1.3,1,2.5,1.7,3.4
	c0.2,0.6,0.5,1.1,1,1.5c0.7,0.6,0.5,1.5,0.5,1.8c-0.1,0.6-0.5,1.1-0.8,1.1c-1.7,0.4-3.5,0.9-4.8,1.9c-1.2,1-1.8,2.3-1.8,4.1
	c0,0.3,0.3,0.6,0.6,0.6h19c0.3,0,0.6-0.3,0.6-0.6C-1199.4,469.8-1199.9,468.5-1201.2,467.5L-1201.2,467.5z M-1214.2,454.5
	c0.3-0.6,0.7-0.9,1.4-0.9c0.3,0,0.5-0.2,0.5-0.4c0.2-0.9,1.3-1.3,2.3-1.3c2-0.1,4.5,0.9,5.1,3c0.3,1.1,0.3,2.2,0,3.2
	c-0.1-0.7-0.2-1.4-0.4-1.8c-0.2-0.4-0.4-1-0.9-1c-2.9,0-5.2-0.4-5.8-1c-0.2-0.2-0.4-0.2-0.6-0.1c-0.2,0.1-0.3,0.3-0.3,0.5
	c0,1.5-0.5,2.6-0.8,2.9c-0.1,0.1-0.2,0.3-0.2,0.4c0,0.1,0,0.3,0,0.4C-1214.4,457.2-1214.6,455.5-1214.2,454.5L-1214.2,454.5z
	 M-1218.3,471c0.1-1.1,0.5-2,1.4-2.6c0.9-0.7,2.2-1.2,4.3-1.7c0.7-0.2,1.4-0.9,1.6-1.9c0.3-1.1,0-2.2-0.8-2.9
	c-0.8-0.7-0.8-2-0.9-3.2c0-0.1,0-0.2,0-0.3c0.4-0.5,0.8-1.4,1-2.6c0.7,0.3,1.6,0.5,2.7,0.6c0.8,0.1,1.8,0.1,2.7,0.1
	c0.2,0.4,0.5,1.5,0.4,2.8c-0.1,0.8-0.3,1.9-1.1,2.6c-0.8,0.7-1.1,1.8-0.9,2.9c0.2,1,0.9,1.8,1.6,2c2.2,0.5,3.5,1,4.3,1.7
	c0.8,0.6,1.3,1.5,1.4,2.6H-1218.3z"/>
<g>
	<path class="st0" d="M-1052.3,475.3c-0.1,0-0.1,0-0.2,0c-2-0.7-4.4-2.8-6.3-5.5c-1.7-2.5-3.7-6.6-3.7-12c0-0.3,0.2-0.5,0.5-0.5
		c3,0,7.7-2.1,9.3-3.1c0.2-0.1,0.4-0.1,0.6,0c1.6,1.1,6.3,3.1,9.3,3.1c0.3,0,0.5,0.2,0.5,0.5c0,5.5-2,9.6-3.7,12
		c-1.8,2.7-4.3,4.9-6.3,5.5C-1052.2,475.3-1052.2,475.3-1052.3,475.3L-1052.3,475.3z M-1061.3,458.3c0.1,4.9,2,8.6,3.5,10.9
		c1.9,2.8,4.1,4.5,5.6,5.1c1.4-0.6,3.7-2.3,5.6-5.1c1.5-2.3,3.4-6,3.5-10.9c-1.7-0.1-3.7-0.7-5-1.2c-1.5-0.6-3-1.3-4-1.9
		c-1,0.6-2.5,1.3-4,1.9C-1057.7,457.6-1059.6,458.2-1061.3,458.3z"/>
	<path class="st0" d="M-1052.3,465.8c-0.3,0-0.5-0.2-0.5-0.5v-5.3c0-0.3,0.2-0.5,0.5-0.5s0.5,0.2,0.5,0.5v5.3
		C-1051.7,465.5-1052,465.8-1052.3,465.8z"/>
	<path class="st0" d="M-1052.3,469c-0.3,0-0.5-0.2-0.5-0.5v-1.1c0-0.3,0.2-0.5,0.5-0.5s0.5,0.2,0.5,0.5v1.1
		C-1051.7,468.7-1052,469-1052.3,469z"/>
</g>
<path class="st0" d="M-1198.9,528.2h-20.1c-1,0-1.8,0.8-1.8,1.8v15.4c0,1,0.8,1.8,1.8,1.8h6.1l-0.8,1.6c-0.2,0.4-0.4,0.6-0.5,0.8
	c-0.3,0.1-0.4,0.3-0.4,0.6c0,0.3,0.3,0.6,0.6,0.6h10.1c0.3,0,0.6-0.3,0.6-0.6c0-0.3-0.2-0.5-0.4-0.6c-0.1-0.1-0.3-0.4-0.5-0.8
	l-0.8-1.6h6.1c1,0,1.8-0.8,1.8-1.8V530C-1197.2,529-1198,528.2-1198.9,528.2z M-1212.8,549.5c0-0.1,0.1-0.1,0.1-0.2l1.1-2.2h5.2
	l1.1,2.2h0c0,0.1,0.1,0.1,0.1,0.2H-1212.8z M-1198.4,541.2v1.2v1.2v1.7c0,0.3-0.3,0.6-0.6,0.6h-20.1c-0.3,0-0.6-0.3-0.6-0.6v-1.7
	v-1.2v-1.2V530c0-0.3,0.3-0.6,0.6-0.6h20.1c0.3,0,0.6,0.3,0.6,0.6V541.2z"/>
<path class="st0" d="M-1215.3,541.6h-1.8c-0.2,0-0.4-0.2-0.4-0.4v-8.1c0-0.2,0.2-0.4,0.4-0.4h1.8c0.2,0,0.4,0.2,0.4,0.4v8.1
	C-1214.8,541.4-1215,541.6-1215.3,541.6z M-1216.6,540.7h0.9v-7.2h-0.9V540.7z"/>
<path class="st0" d="M-1209.9,538c-0.2,0-0.4-0.2-0.4-0.4v-7.2c0-0.2,0.2-0.4,0.4-0.4h1.8c0.2,0,0.4,0.2,0.4,0.4v3.6
	c0,0.2-0.2,0.4-0.4,0.4c-0.2,0-0.4-0.2-0.4-0.4v-3.1h-0.9v6.7C-1209.4,537.8-1209.6,538-1209.9,538z"/>
<path class="st0" d="M-1211.7,541.6h-1.8c-0.2,0-0.4-0.2-0.4-0.4v-4.5c0-0.2,0.2-0.4,0.4-0.4h1.8c0.2,0,0.4,0.2,0.4,0.4v4.5
	C-1211.2,541.4-1211.4,541.6-1211.7,541.6z M-1213,540.7h0.9v-3.6h-0.9V540.7z"/>
<path class="st0" d="M-1205.4,541.6c-0.7,0-1.3-0.6-1.3-1.3s0.6-1.3,1.3-1.3s1.3,0.6,1.3,1.3S-1204.7,541.6-1205.4,541.6z
	 M-1205.4,539.8c-0.2,0-0.4,0.2-0.4,0.4c0,0.2,0.2,0.4,0.4,0.4c0.2,0,0.4-0.2,0.4-0.4C-1205,540-1205.2,539.8-1205.4,539.8z"/>
<path class="st0" d="M-1206.7,545c0,0-0.1,0-0.1,0c-0.7-0.2-1.3-0.6-1.9-1.1c-0.1-0.1-0.1-0.2-0.1-0.3c0-0.1,0.1-0.3,0.2-0.3
	c0.3-0.3,0.4-0.8,0.2-1.1c-0.2-0.3-0.5-0.4-0.8-0.4c-0.1,0-0.2,0-0.3,0.1c-0.1,0-0.3,0-0.4,0c-0.1-0.1-0.2-0.2-0.2-0.3
	c-0.1-0.4-0.1-0.7-0.1-1.1c0-0.4,0-0.7,0.1-1.1c0-0.1,0.1-0.2,0.2-0.3c0.1-0.1,0.3-0.1,0.4,0c0.1,0,0.2,0.1,0.3,0.1
	c0.3,0,0.6-0.2,0.8-0.4c0.2-0.4,0.1-0.9-0.2-1.1c-0.1-0.1-0.2-0.2-0.2-0.3c0-0.1,0-0.3,0.1-0.3c0.5-0.5,1.2-0.9,1.9-1.1
	c0.1,0,0.3,0,0.4,0c0.1,0.1,0.2,0.2,0.2,0.3c0.1,0.4,0.4,0.8,0.9,0.8c0.4,0,0.8-0.3,0.9-0.8c0-0.1,0.1-0.2,0.2-0.3
	c0.1-0.1,0.2-0.1,0.4,0c0.7,0.2,1.3,0.6,1.9,1.1c0.1,0.1,0.1,0.2,0.1,0.3s-0.1,0.3-0.2,0.3c-0.3,0.3-0.4,0.8-0.2,1.1
	c0.2,0.3,0.5,0.4,0.8,0.4c0.1,0,0.2,0,0.3-0.1c0.1,0,0.3,0,0.4,0c0.1,0.1,0.2,0.2,0.2,0.3c0.1,0.4,0.1,0.7,0.1,1.1
	c0,0.4,0,0.7-0.1,1.1c0,0.1-0.1,0.2-0.2,0.3c-0.1,0.1-0.3,0.1-0.4,0c-0.1,0-0.2-0.1-0.3-0.1c-0.3,0-0.6,0.2-0.8,0.4
	c-0.2,0.4-0.1,0.9,0.2,1.1c0.1,0.1,0.2,0.2,0.2,0.3s0,0.3-0.1,0.3c-0.5,0.5-1.2,0.9-1.9,1.1c-0.1,0-0.3,0-0.4,0
	c-0.1-0.1-0.2-0.2-0.2-0.3c-0.1-0.4-0.4-0.8-0.9-0.8c-0.4,0-0.8,0.3-0.9,0.8c0,0.1-0.1,0.2-0.2,0.3
	C-1206.6,544.9-1206.7,545-1206.7,545L-1206.7,545z M-1207.8,543.5c0.2,0.2,0.5,0.3,0.8,0.5c0.1-0.2,0.3-0.4,0.4-0.6
	c0.3-0.3,0.7-0.4,1.2-0.4c0.4,0,0.8,0.2,1.2,0.4c0.2,0.2,0.3,0.4,0.4,0.6c0.3-0.1,0.5-0.3,0.8-0.5c-0.1-0.2-0.2-0.4-0.3-0.7
	c-0.1-0.4,0-0.9,0.2-1.2c0.3-0.6,0.9-0.9,1.6-0.9c0,0,0.1,0,0.1,0c0-0.1,0-0.3,0-0.5s0-0.3,0-0.5c0,0-0.1,0-0.1,0
	c-0.6,0-1.2-0.3-1.6-0.9c-0.2-0.4-0.3-0.8-0.2-1.2c0-0.2,0.1-0.5,0.3-0.7c-0.2-0.2-0.5-0.3-0.8-0.5c-0.1,0.2-0.3,0.4-0.4,0.6
	c-0.3,0.3-0.7,0.4-1.2,0.4c-0.4,0-0.8-0.2-1.2-0.4c-0.2-0.2-0.3-0.4-0.4-0.6c-0.3,0.1-0.5,0.3-0.8,0.5c0.1,0.2,0.2,0.4,0.3,0.7
	c0.1,0.4,0,0.9-0.2,1.2c-0.3,0.6-0.9,0.9-1.6,0.9c0,0-0.1,0-0.1,0c0,0.1,0,0.3,0,0.5s0,0.3,0,0.5c0,0,0.1,0,0.1,0
	c0.6,0,1.2,0.3,1.6,0.9c0.2,0.4,0.3,0.8,0.2,1.2C-1207.6,543.1-1207.7,543.3-1207.8,543.5L-1207.8,543.5z"/>
<path class="st0" d="M-1123.4,458.6l-4.4-4.4c-0.1-0.1-0.2-0.1-0.3-0.1h-9.3c-0.8,0-1.5,0.7-1.5,1.5v5.9c0,0.3,0.2,0.5,0.5,0.5
	c0.3,0,0.5-0.2,0.5-0.5v-5.9c0-0.3,0.2-0.5,0.5-0.5h8.3v3.4c0,0.8,0.7,1.5,1.5,1.5h3.4v11.2c0,0.3-0.2,0.5-0.5,0.5h-12.7
	c-0.3,0-0.5-0.2-0.5-0.5v-1c0-0.3-0.2-0.5-0.5-0.5c-0.3,0-0.5,0.2-0.5,0.5v1c0,0.8,0.7,1.5,1.5,1.5h12.7c0.8,0,1.5-0.7,1.5-1.5V459
	C-1123.2,458.9-1123.3,458.7-1123.4,458.6z M-1128.1,458.5v-3.2l3.7,3.7h-3.2C-1127.9,459-1128.1,458.8-1128.1,458.5z"/>
<path class="st0" d="M-1126.3,465.5c0,0-0.8-0.9-2.1-1.8c-1-0.7-1.9-1.2-2.9-1.4c0,0-0.1,0-0.1,0c-0.7-0.2-1.4-0.3-2.1-0.3
	c-0.7,0-1.4,0.1-2.1,0.3c0,0-0.1,0-0.1,0c-1,0.3-2,0.8-2.9,1.4c-1.3,0.9-2.1,1.7-2.1,1.8c-0.2,0.2-0.2,0.5,0,0.7
	c0,0,0.8,0.9,2.1,1.8c1.7,1.2,3.5,1.8,5.1,1.8c1.6,0,3.4-0.6,5.1-1.8c1.3-0.9,2.1-1.7,2.1-1.8
	C-1126.1,466-1126.1,465.7-1126.3,465.5L-1126.3,465.5z M-1131.7,463.1c0.4,0.5,0.7,1.1,0.7,1.7c0,1.3-1.1,2.4-2.4,2.4
	c-1.3,0-2.4-1.1-2.4-2.4c0-0.6,0.2-1.2,0.7-1.7c0.6-0.2,1.1-0.3,1.8-0.3C-1132.9,462.9-1132.3,463-1131.7,463.1z M-1133.5,468.7
	c-1.8,0-3.5-0.9-4.5-1.6c-0.7-0.5-1.3-1-1.6-1.3c0.5-0.5,1.6-1.4,2.9-2.1c-0.1,0.4-0.2,0.7-0.2,1.1c0,1.9,1.5,3.4,3.4,3.4
	c1.9,0,3.4-1.5,3.4-3.4c0-0.4-0.1-0.8-0.2-1.1c0.5,0.2,0.9,0.5,1.3,0.8c0.7,0.5,1.3,1,1.6,1.3
	C-1128.2,466.6-1130.6,468.7-1133.5,468.7L-1133.5,468.7z"/>
</svg>
