<?xml version="1.0" encoding="utf-8"?>
<!-- Generator: Adobe Illustrator 19.1.0, SVG Export Plug-In . SVG Version: 6.00 Build 0)  -->
<svg version="1.1" id="Layer_1" xmlns="http://www.w3.org/2000/svg" xmlns:xlink="http://www.w3.org/1999/xlink" x="0px" y="0px"
	 viewBox="-1429 531 20 20" style="enable-background:new -1429 531 20 20;" xml:space="preserve">
<style type="text/css">
	.st0{fill:#FE504F;}
</style>
<path class="st0" d="M-1419.5,551c-0.1,0-0.1,0-0.2,0c-1.8-0.6-4.1-2.7-5.9-5.2c-1.6-2.3-3.5-6.2-3.5-11.3c0-0.3,0.2-0.5,0.5-0.5
	c2.8,0,7.2-1.9,8.7-2.9c0.2-0.1,0.4-0.1,0.6,0c1.5,1,5.9,2.9,8.7,2.9c0.3,0,0.5,0.2,0.5,0.5c0,5.1-1.9,9-3.5,11.3
	c-1.7,2.5-4,4.6-5.9,5.2C-1419.4,551-1419.4,551-1419.5,551L-1419.5,551z M-1428,535c0.1,4.6,1.8,8.1,3.3,10.2
	c1.8,2.6,3.9,4.2,5.2,4.8c1.4-0.5,3.4-2.2,5.2-4.8c1.4-2.1,3.2-5.6,3.3-10.2c-1.6-0.1-3.4-0.7-4.7-1.1c-1.4-0.5-2.8-1.2-3.8-1.8
	c-0.9,0.6-2.3,1.2-3.8,1.8C-1424.6,534.3-1426.4,534.9-1428,535z"/>
<path class="st0" d="M-1419.5,542c-0.3,0-0.5-0.2-0.5-0.5v-5c0-0.3,0.2-0.5,0.5-0.5s0.5,0.2,0.5,0.5v5
	C-1419,541.8-1419.2,542-1419.5,542z"/>
<path class="st0" d="M-1419.5,545c-0.3,0-0.5-0.2-0.5-0.5v-1c0-0.3,0.2-0.5,0.5-0.5s0.5,0.2,0.5,0.5v1
	C-1419,544.8-1419.2,545-1419.5,545z"/>
</svg>
